<svg width="400" height="65" viewBox="0 0 400 65" fill="none" xmlns="http://www.w3.org/2000/svg">
<rect x="15" y="8" width="384" height="49" rx="24.5" stroke="#4C513B" stroke-width="2"/>
<ellipse cx="33" cy="32.5" rx="33" ry="32.5" fill="#4C513B"/>
<path d="M79.6135 29.54V36C79.6135 36.5333 79.7268 36.9133 79.9535 37.14C80.1802 37.3533 80.5735 37.46 81.1335 37.46H82.4735V39H80.8335C79.8202 39 79.0602 38.7667 78.5535 38.3C78.0468 37.8333 77.7935 37.0667 77.7935 36V29.54H76.3735V28.04H77.7935V25.28H79.6135V28.04H82.4735V29.54H79.6135ZM83.9987 33.48C83.9987 32.36 84.2253 31.38 84.6787 30.54C85.132 29.6867 85.752 29.0267 86.5387 28.56C87.3387 28.0933 88.2253 27.86 89.1987 27.86C90.1587 27.86 90.992 28.0667 91.6987 28.48C92.4053 28.8933 92.932 29.4133 93.2787 30.04V28.04H95.1187V39H93.2787V36.96C92.9187 37.6 92.3787 38.1333 91.6587 38.56C90.952 38.9733 90.1253 39.18 89.1787 39.18C88.2053 39.18 87.3253 38.94 86.5387 38.46C85.752 37.98 85.132 37.3067 84.6787 36.44C84.2253 35.5733 83.9987 34.5867 83.9987 33.48ZM93.2787 33.5C93.2787 32.6733 93.112 31.9533 92.7787 31.34C92.4453 30.7267 91.992 30.26 91.4187 29.94C90.8587 29.6067 90.2387 29.44 89.5587 29.44C88.8787 29.44 88.2587 29.6 87.6987 29.92C87.1387 30.24 86.692 30.7067 86.3587 31.32C86.0253 31.9333 85.8587 32.6533 85.8587 33.48C85.8587 34.32 86.0253 35.0533 86.3587 35.68C86.692 36.2933 87.1387 36.7667 87.6987 37.1C88.2587 37.42 88.8787 37.58 89.5587 37.58C90.2387 37.58 90.8587 37.42 91.4187 37.1C91.992 36.7667 92.4453 36.2933 92.7787 35.68C93.112 35.0533 93.2787 34.3267 93.2787 33.5ZM107.634 28.04L101.034 44.16H99.1543L101.314 38.88L96.8943 28.04H98.9143L102.354 36.92L105.754 28.04H107.634ZM111.284 24.2V39H109.464V24.2H111.284ZM119.166 39.18C118.139 39.18 117.206 38.9467 116.366 38.48C115.539 38.0133 114.886 37.3533 114.406 36.5C113.939 35.6333 113.706 34.6333 113.706 33.5C113.706 32.38 113.946 31.3933 114.426 30.54C114.919 29.6733 115.586 29.0133 116.426 28.56C117.266 28.0933 118.206 27.86 119.246 27.86C120.286 27.86 121.226 28.0933 122.066 28.56C122.906 29.0133 123.566 29.6667 124.046 30.52C124.539 31.3733 124.786 32.3667 124.786 33.5C124.786 34.6333 124.532 35.6333 124.026 36.5C123.532 37.3533 122.859 38.0133 122.006 38.48C121.152 38.9467 120.206 39.18 119.166 39.18ZM119.166 37.58C119.819 37.58 120.432 37.4267 121.006 37.12C121.579 36.8133 122.039 36.3533 122.386 35.74C122.746 35.1267 122.926 34.38 122.926 33.5C122.926 32.62 122.752 31.8733 122.406 31.26C122.059 30.6467 121.606 30.1933 121.046 29.9C120.486 29.5933 119.879 29.44 119.226 29.44C118.559 29.44 117.946 29.5933 117.386 29.9C116.839 30.1933 116.399 30.6467 116.066 31.26C115.732 31.8733 115.566 32.62 115.566 33.5C115.566 34.3933 115.726 35.1467 116.046 35.76C116.379 36.3733 116.819 36.8333 117.366 37.14C117.912 37.4333 118.512 37.58 119.166 37.58ZM128.999 29.82C129.319 29.1933 129.772 28.7067 130.359 28.36C130.959 28.0133 131.685 27.84 132.539 27.84V29.72H132.059C130.019 29.72 128.999 30.8267 128.999 33.04V39H127.179V28.04H128.999V29.82ZM135.22 39.12C134.873 39.12 134.58 39 134.34 38.76C134.1 38.52 133.98 38.2267 133.98 37.88C133.98 37.5333 134.1 37.24 134.34 37C134.58 36.76 134.873 36.64 135.22 36.64C135.553 36.64 135.833 36.76 136.06 37C136.3 37.24 136.42 37.5333 136.42 37.88C136.42 38.2267 136.3 38.52 136.06 38.76C135.833 39 135.553 39.12 135.22 39.12ZM143.359 27.86C144.305 27.86 145.132 28.0667 145.839 28.48C146.559 28.8933 147.092 29.4133 147.439 30.04V28.04H149.279V39.24C149.279 40.24 149.065 41.1267 148.639 41.9C148.212 42.6867 147.599 43.3 146.799 43.74C146.012 44.18 145.092 44.4 144.039 44.4C142.599 44.4 141.399 44.06 140.439 43.38C139.479 42.7 138.912 41.7733 138.739 40.6H140.539C140.739 41.2667 141.152 41.8 141.779 42.2C142.405 42.6133 143.159 42.82 144.039 42.82C145.039 42.82 145.852 42.5067 146.479 41.88C147.119 41.2533 147.439 40.3733 147.439 39.24V36.94C147.079 37.58 146.545 38.1133 145.839 38.54C145.132 38.9667 144.305 39.18 143.359 39.18C142.385 39.18 141.499 38.94 140.699 38.46C139.912 37.98 139.292 37.3067 138.839 36.44C138.385 35.5733 138.159 34.5867 138.159 33.48C138.159 32.36 138.385 31.38 138.839 30.54C139.292 29.6867 139.912 29.0267 140.699 28.56C141.499 28.0933 142.385 27.86 143.359 27.86ZM147.439 33.5C147.439 32.6733 147.272 31.9533 146.939 31.34C146.605 30.7267 146.152 30.26 145.579 29.94C145.019 29.6067 144.399 29.44 143.719 29.44C143.039 29.44 142.419 29.6 141.859 29.92C141.299 30.24 140.852 30.7067 140.519 31.32C140.185 31.9333 140.019 32.6533 140.019 33.48C140.019 34.32 140.185 35.0533 140.519 35.68C140.852 36.2933 141.299 36.7667 141.859 37.1C142.419 37.42 143.039 37.58 143.719 37.58C144.399 37.58 145.019 37.42 145.579 37.1C146.152 36.7667 146.605 36.2933 146.939 35.68C147.272 35.0533 147.439 34.3267 147.439 33.5ZM162.074 28.04V39H160.254V37.38C159.908 37.94 159.421 38.38 158.794 38.7C158.181 39.0067 157.501 39.16 156.754 39.16C155.901 39.16 155.134 38.9867 154.454 38.64C153.774 38.28 153.234 37.7467 152.834 37.04C152.448 36.3333 152.254 35.4733 152.254 34.46V28.04H154.054V34.22C154.054 35.3 154.328 36.1333 154.874 36.72C155.421 37.2933 156.168 37.58 157.114 37.58C158.088 37.58 158.854 37.28 159.414 36.68C159.974 36.08 160.254 35.2067 160.254 34.06V28.04H162.074ZM166.087 26.26C165.741 26.26 165.447 26.14 165.207 25.9C164.967 25.66 164.847 25.3667 164.847 25.02C164.847 24.6733 164.967 24.38 165.207 24.14C165.447 23.9 165.741 23.78 166.087 23.78C166.421 23.78 166.701 23.9 166.927 24.14C167.167 24.38 167.287 24.6733 167.287 25.02C167.287 25.3667 167.167 25.66 166.927 25.9C166.701 26.14 166.421 26.26 166.087 26.26ZM166.967 28.04V39H165.147V28.04H166.967ZM175.409 27.84C176.743 27.84 177.823 28.2467 178.649 29.06C179.476 29.86 179.889 31.02 179.889 32.54V39H178.089V32.8C178.089 31.7067 177.816 30.8733 177.269 30.3C176.723 29.7133 175.976 29.42 175.029 29.42C174.069 29.42 173.303 29.72 172.729 30.32C172.169 30.92 171.889 31.7933 171.889 32.94V39H170.069V28.04H171.889V29.6C172.249 29.04 172.736 28.6067 173.349 28.3C173.976 27.9933 174.663 27.84 175.409 27.84ZM186.742 39.18C185.902 39.18 185.149 39.04 184.482 38.76C183.816 38.4667 183.289 38.0667 182.902 37.56C182.516 37.04 182.302 36.4467 182.262 35.78H184.142C184.196 36.3267 184.449 36.7733 184.902 37.12C185.369 37.4667 185.976 37.64 186.722 37.64C187.416 37.64 187.962 37.4867 188.362 37.18C188.762 36.8733 188.962 36.4867 188.962 36.02C188.962 35.54 188.749 35.1867 188.322 34.96C187.896 34.72 187.236 34.4867 186.342 34.26C185.529 34.0467 184.862 33.8333 184.342 33.62C183.836 33.3933 183.396 33.0667 183.022 32.64C182.662 32.2 182.482 31.6267 182.482 30.92C182.482 30.36 182.649 29.8467 182.982 29.38C183.316 28.9133 183.789 28.5467 184.402 28.28C185.016 28 185.716 27.86 186.502 27.86C187.716 27.86 188.696 28.1667 189.442 28.78C190.189 29.3933 190.589 30.2333 190.642 31.3H188.822C188.782 30.7267 188.549 30.2667 188.122 29.92C187.709 29.5733 187.149 29.4 186.442 29.4C185.789 29.4 185.269 29.54 184.882 29.82C184.496 30.1 184.302 30.4667 184.302 30.92C184.302 31.28 184.416 31.58 184.642 31.82C184.882 32.0467 185.176 32.2333 185.522 32.38C185.882 32.5133 186.376 32.6667 187.002 32.84C187.789 33.0533 188.429 33.2667 188.922 33.48C189.416 33.68 189.836 33.9867 190.182 34.4C190.542 34.8133 190.729 35.3533 190.742 36.02C190.742 36.62 190.576 37.16 190.242 37.64C189.909 38.12 189.436 38.5 188.822 38.78C188.222 39.0467 187.529 39.18 186.742 39.18ZM195.131 30.08C195.505 29.4267 196.051 28.8933 196.771 28.48C197.491 28.0667 198.311 27.86 199.231 27.86C200.218 27.86 201.105 28.0933 201.891 28.56C202.678 29.0267 203.298 29.6867 203.751 30.54C204.205 31.38 204.431 32.36 204.431 33.48C204.431 34.5867 204.205 35.5733 203.751 36.44C203.298 37.3067 202.671 37.98 201.871 38.46C201.085 38.94 200.205 39.18 199.231 39.18C198.285 39.18 197.451 38.9733 196.731 38.56C196.025 38.1467 195.491 37.62 195.131 36.98V39H193.311V24.2H195.131V30.08ZM202.571 33.48C202.571 32.6533 202.405 31.9333 202.071 31.32C201.738 30.7067 201.285 30.24 200.711 29.92C200.151 29.6 199.531 29.44 198.851 29.44C198.185 29.44 197.565 29.6067 196.991 29.94C196.431 30.26 195.978 30.7333 195.631 31.36C195.298 31.9733 195.131 32.6867 195.131 33.5C195.131 34.3267 195.298 35.0533 195.631 35.68C195.978 36.2933 196.431 36.7667 196.991 37.1C197.565 37.42 198.185 37.58 198.851 37.58C199.531 37.58 200.151 37.42 200.711 37.1C201.285 36.7667 201.738 36.2933 202.071 35.68C202.405 35.0533 202.571 34.32 202.571 33.48ZM216.827 33.1C216.827 33.4467 216.807 33.8133 216.767 34.2H208.007C208.074 35.28 208.44 36.1267 209.107 36.74C209.787 37.34 210.607 37.64 211.567 37.64C212.354 37.64 213.007 37.46 213.527 37.1C214.06 36.7267 214.434 36.2333 214.647 35.62H216.607C216.314 36.6733 215.727 37.5333 214.847 38.2C213.967 38.8533 212.874 39.18 211.567 39.18C210.527 39.18 209.594 38.9467 208.767 38.48C207.954 38.0133 207.314 37.3533 206.847 36.5C206.38 35.6333 206.147 34.6333 206.147 33.5C206.147 32.3667 206.374 31.3733 206.827 30.52C207.28 29.6667 207.914 29.0133 208.727 28.56C209.554 28.0933 210.5 27.86 211.567 27.86C212.607 27.86 213.527 28.0867 214.327 28.54C215.127 28.9933 215.74 29.62 216.167 30.42C216.607 31.2067 216.827 32.1 216.827 33.1ZM214.947 32.72C214.947 32.0267 214.794 31.4333 214.487 30.94C214.18 30.4333 213.76 30.0533 213.227 29.8C212.707 29.5333 212.127 29.4 211.487 29.4C210.567 29.4 209.78 29.6933 209.127 30.28C208.487 30.8667 208.12 31.68 208.027 32.72H214.947ZM221.049 29.82C221.369 29.1933 221.823 28.7067 222.409 28.36C223.009 28.0133 223.736 27.84 224.589 27.84V29.72H224.109C222.069 29.72 221.049 30.8267 221.049 33.04V39H219.229V28.04H221.049V29.82ZM231.21 27.86C232.157 27.86 232.984 28.0667 233.69 28.48C234.41 28.8933 234.944 29.4133 235.29 30.04V28.04H237.13V39.24C237.13 40.24 236.917 41.1267 236.49 41.9C236.064 42.6867 235.45 43.3 234.65 43.74C233.864 44.18 232.944 44.4 231.89 44.4C230.45 44.4 229.25 44.06 228.29 43.38C227.33 42.7 226.764 41.7733 226.59 40.6H228.39C228.59 41.2667 229.004 41.8 229.63 42.2C230.257 42.6133 231.01 42.82 231.89 42.82C232.89 42.82 233.704 42.5067 234.33 41.88C234.97 41.2533 235.29 40.3733 235.29 39.24V36.94C234.93 37.58 234.397 38.1133 233.69 38.54C232.984 38.9667 232.157 39.18 231.21 39.18C230.237 39.18 229.35 38.94 228.55 38.46C227.764 37.98 227.144 37.3067 226.69 36.44C226.237 35.5733 226.01 34.5867 226.01 33.48C226.01 32.36 226.237 31.38 226.69 30.54C227.144 29.6867 227.764 29.0267 228.55 28.56C229.35 28.0933 230.237 27.86 231.21 27.86ZM235.29 33.5C235.29 32.6733 235.124 31.9533 234.79 31.34C234.457 30.7267 234.004 30.26 233.43 29.94C232.87 29.6067 232.25 29.44 231.57 29.44C230.89 29.44 230.27 29.6 229.71 29.92C229.15 30.24 228.704 30.7067 228.37 31.32C228.037 31.9333 227.87 32.6533 227.87 33.48C227.87 34.32 228.037 35.0533 228.37 35.68C228.704 36.2933 229.15 36.7667 229.71 37.1C230.27 37.42 230.89 37.58 231.57 37.58C232.25 37.58 232.87 37.42 233.43 37.1C234.004 36.7667 234.457 36.2933 234.79 35.68C235.124 35.0533 235.29 34.3267 235.29 33.5ZM250.206 26.18C251.686 26.18 252.973 26.46 254.066 27.02C255.159 27.58 255.999 28.3667 256.586 29.38C257.173 30.38 257.466 31.54 257.466 32.86C257.466 33.9133 257.293 34.9267 256.946 35.9C256.599 36.86 256.093 37.64 255.426 38.24C254.773 38.84 254.006 39.14 253.126 39.14C252.459 39.14 251.946 38.9733 251.586 38.64C251.226 38.3067 251.019 37.8533 250.966 37.28C250.553 37.8533 250.026 38.3067 249.386 38.64C248.759 38.9733 248.093 39.14 247.386 39.14C246.373 39.14 245.573 38.8333 244.986 38.22C244.413 37.5933 244.126 36.7533 244.126 35.7C244.126 34.7 244.333 33.7667 244.746 32.9C245.173 32.0333 245.759 31.34 246.506 30.82C247.253 30.2867 248.099 30.02 249.046 30.02C250.313 30.02 251.166 30.5 251.606 31.46L251.826 30.22H253.406L252.406 36C252.366 36.2533 252.346 36.4867 252.346 36.7C252.346 37.5 252.699 37.9 253.406 37.9C253.939 37.9 254.399 37.6467 254.786 37.14C255.186 36.6333 255.486 36 255.686 35.24C255.886 34.4667 255.986 33.7067 255.986 32.96C255.986 31.2133 255.459 29.86 254.406 28.9C253.366 27.94 251.893 27.46 249.986 27.46C248.399 27.46 246.966 27.8467 245.686 28.62C244.419 29.38 243.426 30.4267 242.706 31.76C241.986 33.0933 241.626 34.5667 241.626 36.18C241.613 37.94 242.139 39.2933 243.206 40.24C244.273 41.2 245.753 41.68 247.646 41.68C248.899 41.68 250.006 41.4533 250.966 41L251.206 42.24C250.019 42.7333 248.713 42.98 247.286 42.98C245.859 42.98 244.599 42.7067 243.506 42.16C242.426 41.6267 241.586 40.8533 240.986 39.84C240.399 38.84 240.106 37.6733 240.106 36.34C240.106 34.46 240.539 32.7467 241.406 31.2C242.273 29.64 243.473 28.4133 245.006 27.52C246.553 26.6267 248.286 26.18 250.206 26.18ZM247.926 37.72C248.526 37.72 249.079 37.5467 249.586 37.2C250.093 36.84 250.493 36.36 250.786 35.76C251.079 35.1467 251.226 34.48 251.226 33.76C251.226 33.0667 251.033 32.5067 250.646 32.08C250.273 31.64 249.739 31.42 249.046 31.42C248.406 31.42 247.839 31.6133 247.346 32C246.866 32.3733 246.493 32.8733 246.226 33.5C245.959 34.1133 245.826 34.7533 245.826 35.42C245.826 36.1267 246.006 36.6867 246.366 37.1C246.726 37.5133 247.246 37.72 247.926 37.72ZM264.98 27.86C265.927 27.86 266.753 28.0667 267.46 28.48C268.18 28.8933 268.713 29.4133 269.06 30.04V28.04H270.9V39.24C270.9 40.24 270.687 41.1267 270.26 41.9C269.833 42.6867 269.22 43.3 268.42 43.74C267.633 44.18 266.713 44.4 265.66 44.4C264.22 44.4 263.02 44.06 262.06 43.38C261.1 42.7 260.533 41.7733 260.36 40.6H262.16C262.36 41.2667 262.773 41.8 263.4 42.2C264.027 42.6133 264.78 42.82 265.66 42.82C266.66 42.82 267.473 42.5067 268.1 41.88C268.74 41.2533 269.06 40.3733 269.06 39.24V36.94C268.7 37.58 268.167 38.1133 267.46 38.54C266.753 38.9667 265.927 39.18 264.98 39.18C264.007 39.18 263.12 38.94 262.32 38.46C261.533 37.98 260.913 37.3067 260.46 36.44C260.007 35.5733 259.78 34.5867 259.78 33.48C259.78 32.36 260.007 31.38 260.46 30.54C260.913 29.6867 261.533 29.0267 262.32 28.56C263.12 28.0933 264.007 27.86 264.98 27.86ZM269.06 33.5C269.06 32.6733 268.893 31.9533 268.56 31.34C268.227 30.7267 267.773 30.26 267.2 29.94C266.64 29.6067 266.02 29.44 265.34 29.44C264.66 29.44 264.04 29.6 263.48 29.92C262.92 30.24 262.473 30.7067 262.14 31.32C261.807 31.9333 261.64 32.6533 261.64 33.48C261.64 34.32 261.807 35.0533 262.14 35.68C262.473 36.2933 262.92 36.7667 263.48 37.1C264.04 37.42 264.66 37.58 265.34 37.58C266.02 37.58 266.64 37.42 267.2 37.1C267.773 36.7667 268.227 36.2933 268.56 35.68C268.893 35.0533 269.06 34.3267 269.06 33.5ZM287.156 27.84C288.009 27.84 288.769 28.02 289.436 28.38C290.102 28.7267 290.629 29.2533 291.016 29.96C291.402 30.6667 291.596 31.5267 291.596 32.54V39H289.796V32.8C289.796 31.7067 289.522 30.8733 288.976 30.3C288.442 29.7133 287.716 29.42 286.796 29.42C285.849 29.42 285.096 29.7267 284.536 30.34C283.976 30.94 283.696 31.8133 283.696 32.96V39H281.896V32.8C281.896 31.7067 281.622 30.8733 281.076 30.3C280.542 29.7133 279.816 29.42 278.896 29.42C277.949 29.42 277.196 29.7267 276.636 30.34C276.076 30.94 275.796 31.8133 275.796 32.96V39H273.976V28.04H275.796V29.62C276.156 29.0467 276.636 28.6067 277.236 28.3C277.849 27.9933 278.522 27.84 279.256 27.84C280.176 27.84 280.989 28.0467 281.696 28.46C282.402 28.8733 282.929 29.48 283.276 30.28C283.582 29.5067 284.089 28.9067 284.796 28.48C285.502 28.0533 286.289 27.84 287.156 27.84ZM293.901 33.48C293.901 32.36 294.128 31.38 294.581 30.54C295.034 29.6867 295.654 29.0267 296.441 28.56C297.241 28.0933 298.128 27.86 299.101 27.86C300.061 27.86 300.894 28.0667 301.601 28.48C302.308 28.8933 302.834 29.4133 303.181 30.04V28.04H305.021V39H303.181V36.96C302.821 37.6 302.281 38.1333 301.561 38.56C300.854 38.9733 300.028 39.18 299.081 39.18C298.108 39.18 297.228 38.94 296.441 38.46C295.654 37.98 295.034 37.3067 294.581 36.44C294.128 35.5733 293.901 34.5867 293.901 33.48ZM303.181 33.5C303.181 32.6733 303.014 31.9533 302.681 31.34C302.348 30.7267 301.894 30.26 301.321 29.94C300.761 29.6067 300.141 29.44 299.461 29.44C298.781 29.44 298.161 29.6 297.601 29.92C297.041 30.24 296.594 30.7067 296.261 31.32C295.928 31.9333 295.761 32.6533 295.761 33.48C295.761 34.32 295.928 35.0533 296.261 35.68C296.594 36.2933 297.041 36.7667 297.601 37.1C298.161 37.42 298.781 37.58 299.461 37.58C300.141 37.58 300.761 37.42 301.321 37.1C301.894 36.7667 302.348 36.2933 302.681 35.68C303.014 35.0533 303.181 34.3267 303.181 33.5ZM309.037 26.26C308.69 26.26 308.397 26.14 308.157 25.9C307.917 25.66 307.797 25.3667 307.797 25.02C307.797 24.6733 307.917 24.38 308.157 24.14C308.397 23.9 308.69 23.78 309.037 23.78C309.37 23.78 309.65 23.9 309.877 24.14C310.117 24.38 310.237 24.6733 310.237 25.02C310.237 25.3667 310.117 25.66 309.877 25.9C309.65 26.14 309.37 26.26 309.037 26.26ZM309.917 28.04V39H308.097V28.04H309.917ZM314.839 24.2V39H313.019V24.2H314.839ZM318.52 39.12C318.174 39.12 317.88 39 317.64 38.76C317.4 38.52 317.28 38.2267 317.28 37.88C317.28 37.5333 317.4 37.24 317.64 37C317.88 36.76 318.174 36.64 318.52 36.64C318.854 36.64 319.134 36.76 319.36 37C319.6 37.24 319.72 37.5333 319.72 37.88C319.72 38.2267 319.6 38.52 319.36 38.76C319.134 39 318.854 39.12 318.52 39.12ZM321.46 33.5C321.46 32.3667 321.686 31.38 322.14 30.54C322.593 29.6867 323.22 29.0267 324.02 28.56C324.833 28.0933 325.76 27.86 326.8 27.86C328.146 27.86 329.253 28.1867 330.12 28.84C331 29.4933 331.58 30.4 331.86 31.56H329.9C329.713 30.8933 329.346 30.3667 328.8 29.98C328.266 29.5933 327.6 29.4 326.8 29.4C325.76 29.4 324.92 29.76 324.28 30.48C323.64 31.1867 323.32 32.1933 323.32 33.5C323.32 34.82 323.64 35.84 324.28 36.56C324.92 37.28 325.76 37.64 326.8 37.64C327.6 37.64 328.266 37.4533 328.8 37.08C329.333 36.7067 329.7 36.1733 329.9 35.48H331.86C331.566 36.6 330.98 37.5 330.1 38.18C329.22 38.8467 328.12 39.18 326.8 39.18C325.76 39.18 324.833 38.9467 324.02 38.48C323.22 38.0133 322.593 37.3533 322.14 36.5C321.686 35.6467 321.46 34.6467 321.46 33.5ZM339.068 39.18C338.041 39.18 337.108 38.9467 336.268 38.48C335.441 38.0133 334.788 37.3533 334.308 36.5C333.841 35.6333 333.608 34.6333 333.608 33.5C333.608 32.38 333.848 31.3933 334.328 30.54C334.821 29.6733 335.488 29.0133 336.328 28.56C337.168 28.0933 338.108 27.86 339.148 27.86C340.188 27.86 341.128 28.0933 341.968 28.56C342.808 29.0133 343.468 29.6667 343.948 30.52C344.441 31.3733 344.688 32.3667 344.688 33.5C344.688 34.6333 344.435 35.6333 343.928 36.5C343.435 37.3533 342.761 38.0133 341.908 38.48C341.055 38.9467 340.108 39.18 339.068 39.18ZM339.068 37.58C339.721 37.58 340.335 37.4267 340.908 37.12C341.481 36.8133 341.941 36.3533 342.288 35.74C342.648 35.1267 342.828 34.38 342.828 33.5C342.828 32.62 342.655 31.8733 342.308 31.26C341.961 30.6467 341.508 30.1933 340.948 29.9C340.388 29.5933 339.781 29.44 339.128 29.44C338.461 29.44 337.848 29.5933 337.288 29.9C336.741 30.1933 336.301 30.6467 335.968 31.26C335.635 31.8733 335.468 32.62 335.468 33.5C335.468 34.3933 335.628 35.1467 335.948 35.76C336.281 36.3733 336.721 36.8333 337.268 37.14C337.815 37.4333 338.415 37.58 339.068 37.58ZM360.261 27.84C361.114 27.84 361.874 28.02 362.541 28.38C363.208 28.7267 363.734 29.2533 364.121 29.96C364.508 30.6667 364.701 31.5267 364.701 32.54V39H362.901V32.8C362.901 31.7067 362.628 30.8733 362.081 30.3C361.548 29.7133 360.821 29.42 359.901 29.42C358.954 29.42 358.201 29.7267 357.641 30.34C357.081 30.94 356.801 31.8133 356.801 32.96V39H355.001V32.8C355.001 31.7067 354.728 30.8733 354.181 30.3C353.648 29.7133 352.921 29.42 352.001 29.42C351.054 29.42 350.301 29.7267 349.741 30.34C349.181 30.94 348.901 31.8133 348.901 32.96V39H347.081V28.04H348.901V29.62C349.261 29.0467 349.741 28.6067 350.341 28.3C350.954 27.9933 351.628 27.84 352.361 27.84C353.281 27.84 354.094 28.0467 354.801 28.46C355.508 28.8733 356.034 29.48 356.381 30.28C356.688 29.5067 357.194 28.9067 357.901 28.48C358.608 28.0533 359.394 27.84 360.261 27.84Z" fill="#523C2A"/>
<path d="M53 20.875C53 18.7437 51.29 17 49.2 17H18.8C16.71 17 15 18.7437 15 20.875V44.125C15 46.2563 16.71 48 18.8 48H49.2C51.29 48 53 46.2563 53 44.125V20.875ZM49.2 20.875L34 30.5625L18.8 20.875H49.2ZM49.2 44.125H18.8V24.75L34 34.4375L49.2 24.75V44.125Z" fill="#ECE3D2"/>
</svg>
