<svg width="400" height="65" viewBox="0 0 400 65" fill="none" xmlns="http://www.w3.org/2000/svg">
<rect x="15" y="8" width="384" height="49" rx="24.5" stroke="#4C513B" stroke-width="2"/>
<ellipse cx="33" cy="32.5" rx="33" ry="32.5" fill="#4C513B"/>
<path d="M79.22 41.72C77.94 40.4667 76.94 38.8733 76.22 36.94C75.5133 35.0067 75.16 32.92 75.16 30.68C75.16 28.3867 75.5333 26.2467 76.28 24.26C77.04 22.26 78.12 20.6133 79.52 19.32H81.42V19.5C79.9267 20.9 78.8 22.5867 78.04 24.56C77.2933 26.52 76.92 28.56 76.92 30.68C76.92 32.7467 77.2733 34.72 77.98 36.6C78.7 38.48 79.7467 40.1267 81.12 41.54V41.72H79.22ZM83.282 27.18C83.3754 25.9533 83.8487 24.9933 84.702 24.3C85.5554 23.6067 86.662 23.26 88.022 23.26C88.9287 23.26 89.7087 23.4267 90.362 23.76C91.0287 24.08 91.5287 24.52 91.862 25.08C92.2087 25.64 92.382 26.2733 92.382 26.98C92.382 27.8067 92.142 28.52 91.662 29.12C91.1954 29.72 90.582 30.1067 89.822 30.28V30.38C90.6887 30.5933 91.3754 31.0133 91.882 31.64C92.3887 32.2667 92.642 33.0867 92.642 34.1C92.642 34.86 92.4687 35.5467 92.122 36.16C91.7754 36.76 91.2554 37.2333 90.562 37.58C89.8687 37.9267 89.0354 38.1 88.062 38.1C86.6487 38.1 85.4887 37.7333 84.582 37C83.6754 36.2533 83.1687 35.2 83.062 33.84H84.822C84.9154 34.64 85.242 35.2933 85.802 35.8C86.362 36.3067 87.1087 36.56 88.042 36.56C88.9754 36.56 89.682 36.32 90.162 35.84C90.6554 35.3467 90.902 34.7133 90.902 33.94C90.902 32.94 90.5687 32.22 89.902 31.78C89.2354 31.34 88.2287 31.12 86.882 31.12H86.422V29.6H86.902C88.1287 29.5867 89.0554 29.3867 89.682 29C90.3087 28.6 90.622 27.9867 90.622 27.16C90.622 26.4533 90.3887 25.8867 89.922 25.46C89.4687 25.0333 88.8154 24.82 87.962 24.82C87.1354 24.82 86.4687 25.0333 85.962 25.46C85.4554 25.8867 85.1554 26.46 85.062 27.18H83.282ZM94.6194 25.2V23.54H98.3794V38H96.5394V25.2H94.6194ZM101.226 41.72V41.54C102.599 40.1267 103.639 38.48 104.346 36.6C105.066 34.72 105.426 32.7467 105.426 30.68C105.426 28.56 105.046 26.52 104.286 24.56C103.539 22.5867 102.419 20.9 100.926 19.5V19.32H102.826C104.226 20.6133 105.299 22.26 106.046 24.26C106.806 26.2467 107.186 28.3867 107.186 30.68C107.186 32.92 106.826 35.0067 106.106 36.94C105.399 38.8733 104.406 40.4667 103.126 41.72H101.226ZM118.26 34.12C118.393 34.88 118.7 35.4667 119.18 35.88C119.673 36.2933 120.333 36.5 121.16 36.5C122.266 36.5 123.08 36.0667 123.6 35.2C124.133 34.3333 124.386 32.8733 124.36 30.82C124.08 31.42 123.613 31.8933 122.96 32.24C122.306 32.5733 121.58 32.74 120.78 32.74C119.886 32.74 119.086 32.56 118.38 32.2C117.686 31.8267 117.14 31.2867 116.74 30.58C116.34 29.8733 116.14 29.02 116.14 28.02C116.14 26.5933 116.553 25.4467 117.38 24.58C118.206 23.7 119.38 23.26 120.9 23.26C122.766 23.26 124.073 23.8667 124.82 25.08C125.58 26.2933 125.96 28.1 125.96 30.5C125.96 32.18 125.806 33.5667 125.5 34.66C125.206 35.7533 124.7 36.5867 123.98 37.16C123.273 37.7333 122.3 38.02 121.06 38.02C119.7 38.02 118.64 37.6533 117.88 36.92C117.12 36.1867 116.686 35.2533 116.58 34.12H118.26ZM121.08 31.2C121.973 31.2 122.706 30.9267 123.28 30.38C123.853 29.82 124.14 29.0667 124.14 28.12C124.14 27.12 123.86 26.3133 123.3 25.7C122.74 25.0867 121.953 24.78 120.94 24.78C120.006 24.78 119.26 25.0733 118.7 25.66C118.153 26.2467 117.88 27.02 117.88 27.98C117.88 28.9533 118.153 29.7333 118.7 30.32C119.246 30.9067 120.04 31.2 121.08 31.2ZM136.489 30.48C135.743 30.1867 135.169 29.76 134.769 29.2C134.369 28.64 134.169 27.96 134.169 27.16C134.169 26.44 134.349 25.7933 134.709 25.22C135.069 24.6333 135.603 24.1733 136.309 23.84C137.029 23.4933 137.896 23.32 138.909 23.32C139.923 23.32 140.783 23.4933 141.489 23.84C142.209 24.1733 142.749 24.6333 143.109 25.22C143.483 25.7933 143.669 26.44 143.669 27.16C143.669 27.9333 143.463 28.6133 143.049 29.2C142.636 29.7733 142.069 30.2 141.349 30.48C142.176 30.7333 142.829 31.18 143.309 31.82C143.803 32.4467 144.049 33.2067 144.049 34.1C144.049 34.9667 143.836 35.7267 143.409 36.38C142.983 37.02 142.376 37.52 141.589 37.88C140.816 38.2267 139.923 38.4 138.909 38.4C137.896 38.4 137.003 38.2267 136.229 37.88C135.469 37.52 134.876 37.02 134.449 36.38C134.023 35.7267 133.809 34.9667 133.809 34.1C133.809 33.2067 134.049 32.44 134.529 31.8C135.009 31.16 135.663 30.72 136.489 30.48ZM141.909 27.38C141.909 26.5667 141.643 25.94 141.109 25.5C140.576 25.06 139.843 24.84 138.909 24.84C137.989 24.84 137.263 25.06 136.729 25.5C136.196 25.94 135.929 26.5733 135.929 27.4C135.929 28.1467 136.203 28.7467 136.749 29.2C137.309 29.6533 138.029 29.88 138.909 29.88C139.803 29.88 140.523 29.6533 141.069 29.2C141.629 28.7333 141.909 28.1267 141.909 27.38ZM138.909 31.28C137.923 31.28 137.116 31.5133 136.489 31.98C135.863 32.4333 135.549 33.12 135.549 34.04C135.549 34.8933 135.849 35.58 136.449 36.1C137.063 36.62 137.883 36.88 138.909 36.88C139.936 36.88 140.749 36.62 141.349 36.1C141.949 35.58 142.249 34.8933 142.249 34.04C142.249 33.1467 141.943 32.4667 141.329 32C140.716 31.52 139.909 31.28 138.909 31.28ZM149.107 30.48C148.36 30.1867 147.787 29.76 147.387 29.2C146.987 28.64 146.787 27.96 146.787 27.16C146.787 26.44 146.967 25.7933 147.327 25.22C147.687 24.6333 148.22 24.1733 148.927 23.84C149.647 23.4933 150.513 23.32 151.527 23.32C152.54 23.32 153.4 23.4933 154.107 23.84C154.827 24.1733 155.367 24.6333 155.727 25.22C156.1 25.7933 156.287 26.44 156.287 27.16C156.287 27.9333 156.08 28.6133 155.667 29.2C155.253 29.7733 154.687 30.2 153.967 30.48C154.793 30.7333 155.447 31.18 155.927 31.82C156.42 32.4467 156.667 33.2067 156.667 34.1C156.667 34.9667 156.453 35.7267 156.027 36.38C155.6 37.02 154.993 37.52 154.207 37.88C153.433 38.2267 152.54 38.4 151.527 38.4C150.513 38.4 149.62 38.2267 148.847 37.88C148.087 37.52 147.493 37.02 147.067 36.38C146.64 35.7267 146.427 34.9667 146.427 34.1C146.427 33.2067 146.667 32.44 147.147 31.8C147.627 31.16 148.28 30.72 149.107 30.48ZM154.527 27.38C154.527 26.5667 154.26 25.94 153.727 25.5C153.193 25.06 152.46 24.84 151.527 24.84C150.607 24.84 149.88 25.06 149.347 25.5C148.813 25.94 148.547 26.5733 148.547 27.4C148.547 28.1467 148.82 28.7467 149.367 29.2C149.927 29.6533 150.647 29.88 151.527 29.88C152.42 29.88 153.14 29.6533 153.687 29.2C154.247 28.7333 154.527 28.1267 154.527 27.38ZM151.527 31.28C150.54 31.28 149.733 31.5133 149.107 31.98C148.48 32.4333 148.167 33.12 148.167 34.04C148.167 34.8933 148.467 35.58 149.067 36.1C149.68 36.62 150.5 36.88 151.527 36.88C152.553 36.88 153.367 36.62 153.967 36.1C154.567 35.58 154.867 34.8933 154.867 34.04C154.867 33.1467 154.56 32.4667 153.947 32C153.333 31.52 152.527 31.28 151.527 31.28ZM161.424 34.12C161.557 34.88 161.864 35.4667 162.344 35.88C162.837 36.2933 163.497 36.5 164.324 36.5C165.43 36.5 166.244 36.0667 166.764 35.2C167.297 34.3333 167.55 32.8733 167.524 30.82C167.244 31.42 166.777 31.8933 166.124 32.24C165.47 32.5733 164.744 32.74 163.944 32.74C163.05 32.74 162.25 32.56 161.544 32.2C160.85 31.8267 160.304 31.2867 159.904 30.58C159.504 29.8733 159.304 29.02 159.304 28.02C159.304 26.5933 159.717 25.4467 160.544 24.58C161.37 23.7 162.544 23.26 164.064 23.26C165.93 23.26 167.237 23.8667 167.984 25.08C168.744 26.2933 169.124 28.1 169.124 30.5C169.124 32.18 168.97 33.5667 168.664 34.66C168.37 35.7533 167.864 36.5867 167.144 37.16C166.437 37.7333 165.464 38.02 164.224 38.02C162.864 38.02 161.804 37.6533 161.044 36.92C160.284 36.1867 159.85 35.2533 159.744 34.12H161.424ZM164.244 31.2C165.137 31.2 165.87 30.9267 166.444 30.38C167.017 29.82 167.304 29.0667 167.304 28.12C167.304 27.12 167.024 26.3133 166.464 25.7C165.904 25.0867 165.117 24.78 164.104 24.78C163.17 24.78 162.424 25.0733 161.864 25.66C161.317 26.2467 161.044 27.02 161.044 27.98C161.044 28.9533 161.317 29.7333 161.864 30.32C162.41 30.9067 163.204 31.2 164.244 31.2ZM171.641 27.18C171.735 25.9533 172.208 24.9933 173.061 24.3C173.915 23.6067 175.021 23.26 176.381 23.26C177.288 23.26 178.068 23.4267 178.721 23.76C179.388 24.08 179.888 24.52 180.221 25.08C180.568 25.64 180.741 26.2733 180.741 26.98C180.741 27.8067 180.501 28.52 180.021 29.12C179.555 29.72 178.941 30.1067 178.181 30.28V30.38C179.048 30.5933 179.735 31.0133 180.241 31.64C180.748 32.2667 181.001 33.0867 181.001 34.1C181.001 34.86 180.828 35.5467 180.481 36.16C180.135 36.76 179.615 37.2333 178.921 37.58C178.228 37.9267 177.395 38.1 176.421 38.1C175.008 38.1 173.848 37.7333 172.941 37C172.035 36.2533 171.528 35.2 171.421 33.84H173.181C173.275 34.64 173.601 35.2933 174.161 35.8C174.721 36.3067 175.468 36.56 176.401 36.56C177.335 36.56 178.041 36.32 178.521 35.84C179.015 35.3467 179.261 34.7133 179.261 33.94C179.261 32.94 178.928 32.22 178.261 31.78C177.595 31.34 176.588 31.12 175.241 31.12H174.781V29.6H175.261C176.488 29.5867 177.415 29.3867 178.041 29C178.668 28.6 178.981 27.9867 178.981 27.16C178.981 26.4533 178.748 25.8867 178.281 25.46C177.828 25.0333 177.175 24.82 176.321 24.82C175.495 24.82 174.828 25.0333 174.321 25.46C173.815 25.8867 173.515 26.46 173.421 27.18H171.641ZM191.359 29.9V31.44H183.379V29.9H191.359ZM194.254 36.54C195.948 35.18 197.274 34.0667 198.234 33.2C199.194 32.32 200.001 31.4067 200.654 30.46C201.321 29.5 201.654 28.56 201.654 27.64C201.654 26.7733 201.441 26.0933 201.014 25.6C200.601 25.0933 199.928 24.84 198.994 24.84C198.088 24.84 197.381 25.1267 196.874 25.7C196.381 26.26 196.114 27.0133 196.074 27.96H194.314C194.368 26.4667 194.821 25.3133 195.674 24.5C196.528 23.6867 197.628 23.28 198.974 23.28C200.348 23.28 201.434 23.66 202.234 24.42C203.048 25.18 203.454 26.2267 203.454 27.56C203.454 28.6667 203.121 29.7467 202.454 30.8C201.801 31.84 201.054 32.76 200.214 33.56C199.374 34.3467 198.301 35.2667 196.994 36.32H203.874V37.84H194.254V36.54ZM214.878 24.96L209.318 38H207.478L213.118 25.14H205.398V23.58H214.878V24.96ZM226.116 25.12H219.096V29.68C219.403 29.2533 219.856 28.9067 220.456 28.64C221.056 28.36 221.703 28.22 222.396 28.22C223.503 28.22 224.403 28.4533 225.096 28.92C225.79 29.3733 226.283 29.9667 226.576 30.7C226.883 31.42 227.036 32.1867 227.036 33C227.036 33.96 226.856 34.82 226.496 35.58C226.136 36.34 225.583 36.94 224.836 37.38C224.103 37.82 223.19 38.04 222.096 38.04C220.696 38.04 219.563 37.68 218.696 36.96C217.83 36.24 217.303 35.28 217.116 34.08H218.896C219.07 34.84 219.436 35.4333 219.996 35.86C220.556 36.2867 221.263 36.5 222.116 36.5C223.17 36.5 223.963 36.1867 224.496 35.56C225.03 34.92 225.296 34.08 225.296 33.04C225.296 32 225.03 31.2 224.496 30.64C223.963 30.0667 223.176 29.78 222.136 29.78C221.43 29.78 220.81 29.9533 220.276 30.3C219.756 30.6333 219.376 31.0933 219.136 31.68H217.416V23.52H226.116V25.12ZM238.675 25.12H231.655V29.68C231.962 29.2533 232.415 28.9067 233.015 28.64C233.615 28.36 234.262 28.22 234.955 28.22C236.062 28.22 236.962 28.4533 237.655 28.92C238.348 29.3733 238.842 29.9667 239.135 30.7C239.442 31.42 239.595 32.1867 239.595 33C239.595 33.96 239.415 34.82 239.055 35.58C238.695 36.34 238.142 36.94 237.395 37.38C236.662 37.82 235.748 38.04 234.655 38.04C233.255 38.04 232.122 37.68 231.255 36.96C230.388 36.24 229.862 35.28 229.675 34.08H231.455C231.628 34.84 231.995 35.4333 232.555 35.86C233.115 36.2867 233.822 36.5 234.675 36.5C235.728 36.5 236.522 36.1867 237.055 35.56C237.588 34.92 237.855 34.08 237.855 33.04C237.855 32 237.588 31.2 237.055 30.64C236.522 30.0667 235.735 29.78 234.695 29.78C233.988 29.78 233.368 29.9533 232.835 30.3C232.315 30.6333 231.935 31.0933 231.695 31.68H229.975V23.52H238.675V25.12Z" fill="#523C2A"/>
<path d="M44.8995 20.0926C43.2868 18.4723 41.3661 17.1875 39.2494 16.3132C37.1327 15.4389 34.8622 14.9925 32.5704 15.0001C22.9673 15.0001 15.1407 22.7876 15.1407 32.3425C15.1407 35.405 15.9497 38.38 17.4623 41.005L15 50L24.2337 47.585C26.7839 48.9675 29.6508 49.7025 32.5704 49.7025C42.1734 49.7025 50 41.915 50 32.36C50 27.7226 48.1884 23.3651 44.8995 20.0926ZM32.5704 46.7625C29.9673 46.7625 27.4171 46.0625 25.1834 44.75L24.6558 44.435L19.1683 45.87L20.6281 40.55L20.2764 40.0075C18.8299 37.7099 18.0619 35.0538 18.0603 32.3425C18.0603 24.3976 24.5678 17.9226 32.5528 17.9226C36.4221 17.9226 40.0628 19.4276 42.7889 22.1576C44.139 23.4943 45.2089 25.0845 45.9365 26.8359C46.6641 28.5873 47.035 30.465 47.0276 32.36C47.0628 40.305 40.5553 46.7625 32.5704 46.7625ZM40.5201 35.9825C40.0804 35.7725 37.9347 34.7225 37.5477 34.565C37.1432 34.425 36.8618 34.355 36.5628 34.775C36.2638 35.2125 35.4372 36.1925 35.191 36.4725C34.9447 36.77 34.6809 36.805 34.2412 36.5775C33.8015 36.3675 32.3945 35.895 30.7412 34.425C29.4397 33.27 28.5779 31.8526 28.3141 31.4151C28.0678 30.9776 28.2789 30.7501 28.5075 30.5226C28.701 30.3301 28.9472 30.0151 29.1583 29.7701C29.3693 29.5251 29.4573 29.3326 29.598 29.0526C29.7387 28.7551 29.6683 28.5101 29.5628 28.3001C29.4573 28.0901 28.5779 25.9551 28.2261 25.0801C27.8744 24.2401 27.505 24.3451 27.2412 24.3276H26.397C26.098 24.3276 25.6407 24.4326 25.2362 24.8701C24.8492 25.3076 23.7236 26.3576 23.7236 28.4926C23.7236 30.6276 25.2889 32.6925 25.5 32.9725C25.7111 33.27 28.5779 37.645 32.9397 39.5175C33.9774 39.9725 34.7864 40.235 35.4196 40.4275C36.4573 40.76 37.407 40.7075 38.1633 40.6025C39.0075 40.48 40.7487 39.5525 41.1005 38.5375C41.4698 37.5225 41.4698 36.665 41.3467 36.4725C41.2236 36.28 40.9598 36.1925 40.5201 35.9825Z" fill="#ECE3D2"/>
</svg>
