<svg width="50" height="50" viewBox="0 0 50 50" fill="none" xmlns="http://www.w3.org/2000/svg">
<circle cx="25" cy="25" r="25" fill="#4C513B"/>
<path d="M33.3568 15.6376C32.2049 14.4802 30.8329 13.5625 29.321 12.938C27.809 12.3135 26.1873 11.9947 24.5502 12.0001C17.691 12.0001 12.1005 17.5626 12.1005 24.3875C12.1005 26.575 12.6784 28.7 13.7588 30.575L12 37L18.5955 35.275C20.4171 36.2625 22.4648 36.7875 24.5502 36.7875C31.4095 36.7875 37 31.225 37 24.4C37 21.0875 35.706 17.9751 33.3568 15.6376ZM24.5502 34.6875C22.691 34.6875 20.8693 34.1875 19.2739 33.25L18.897 33.025L14.9774 34.05L16.0201 30.25L15.7688 29.8625C14.7356 28.2213 14.1871 26.3241 14.1859 24.3875C14.1859 18.7125 18.8342 14.0876 24.5377 14.0876C27.3015 14.0876 29.902 15.1626 31.8492 17.1126C32.8136 18.0674 33.5778 19.2032 34.0975 20.4542C34.6172 21.7052 34.8822 23.0464 34.8769 24.4C34.902 30.075 30.2538 34.6875 24.5502 34.6875ZM30.2286 26.9875C29.9146 26.8375 28.3819 26.0875 28.1055 25.975C27.8166 25.875 27.6156 25.825 27.402 26.125C27.1884 26.4375 26.598 27.1375 26.4221 27.3375C26.2462 27.55 26.0578 27.575 25.7437 27.4125C25.4296 27.2625 24.4246 26.925 23.2437 25.875C22.3141 25.05 21.6985 24.0375 21.51 23.725C21.3342 23.4125 21.4849 23.25 21.6482 23.0875C21.7864 22.95 21.9623 22.725 22.1131 22.55C22.2638 22.375 22.3266 22.2375 22.4271 22.0375C22.5276 21.825 22.4774 21.65 22.402 21.5C22.3266 21.35 21.6985 19.825 21.4472 19.2C21.196 18.6001 20.9322 18.675 20.7437 18.6625H20.1407C19.9271 18.6625 19.6005 18.7375 19.3116 19.05C19.0352 19.3625 18.2312 20.1125 18.2312 21.6375C18.2312 23.1625 19.3492 24.6375 19.5 24.8375C19.6508 25.05 21.6985 28.175 24.8141 29.5125C25.5553 29.8375 26.1332 30.025 26.5854 30.1625C27.3266 30.4 28.005 30.3625 28.5452 30.2875C29.1482 30.2 30.392 29.5375 30.6432 28.8125C30.907 28.0875 30.907 27.475 30.8191 27.3375C30.7312 27.2 30.5427 27.1375 30.2286 26.9875Z" fill="#ECE3D2"/>
</svg>
